<svg xmlns="http://www.w3.org/2000/svg" width="100" height="100" viewBox="0 0 100 100">
  <defs>
    <linearGradient id="leaf-gradient" x1="0%" y1="0%" x2="100%" y2="100%">
      <stop offset="0%" stop-color="#7a9a7a" />
      <stop offset="100%" stop-color="#4a6b4a" />
    </linearGradient>
  </defs>
  
  <path d="M50,10 C80,10 90,50 90,80 C90,90 80,90 70,85 C60,80 50,70 40,60 C30,50 20,30 50,10 Z" 
        fill="url(#leaf-gradient)" opacity="0.8" />
  
  <!-- Leaf veins -->
  <path d="M50,10 C60,30 65,50 65,70" fill="none" stroke="#2c3e2d" stroke-width="1" opacity="0.5" />
  <path d="M50,10 C55,25 57,45 52,65" fill="none" stroke="#2c3e2d" stroke-width="0.8" opacity="0.5" />
  <path d="M50,10 C45,25 43,45 48,65" fill="none" stroke="#2c3e2d" stroke-width="0.8" opacity="0.5" />
  <path d="M50,10 C40,30 35,50 40,70" fill="none" stroke="#2c3e2d" stroke-width="1" opacity="0.5" />
  
  <!-- Subtle texture -->
  <path d="M50,10 C80,10 90,50 90,80 C90,90 80,90 70,85 C60,80 50,70 40,60 C30,50 20,30 50,10 Z" 
        fill="#ffffff" opacity="0.05" />
</svg>