<svg xmlns="http://www.w3.org/2000/svg" width="350" height="250" viewBox="0 0 350 250">
  <!-- Background -->
  <rect width="350" height="250" fill="#4a6b4a" />
  
  <!-- User flow wireframes -->
  <g transform="translate(25, 25)">
    <!-- Wireframe 1 -->
    <rect x="0" y="0" width="80" height="100" rx="3" ry="3" fill="#f8f4ec" />
    <rect x="10" y="10" width="60" height="10" rx="2" ry="2" fill="#8c8984" opacity="0.5" />
    <rect x="10" y="30" width="60" height="30" rx="2" ry="2" fill="#8c8984" opacity="0.5" />
    <rect x="10" y="70" width="25" height="20" rx="2" ry="2" fill="#2c3e2d" opacity="0.7" />
    <rect x="45" y="70" width="25" height="20" rx="2" ry="2" fill="#8c8984" opacity="0.5" />
    
    <!-- Arrow -->
    <path d="M85,50 L115,50" stroke="#f8f4ec" stroke-width="2" />
    <path d="M110,45 L115,50 L110,55" fill="none" stroke="#f8f4ec" stroke-width="2" />
    
    <!-- Wireframe 2 -->
    <rect x="120" y="0" width="80" height="100" rx="3" ry="3" fill="#f8f4ec" />
    <rect x="130" y="10" width="60" height="10" rx="2" ry="2" fill="#8c8984" opacity="0.5" />
    <rect x="130" y="30" width="25" height="60" rx="2" ry="2" fill="#8c8984" opacity="0.5" />
    <rect x="165" y="30" width="25" height="25" rx="2" ry="2" fill="#8c8984" opacity="0.5" />
    <rect x="165" y="65" width="25" height="25" rx="2" ry="2" fill="#8c8984" opacity="0.5" />
    
    <!-- Arrow -->
    <path d="M205,50 L235,50" stroke="#f8f4ec" stroke-width="2" />
    <path d="M230,45 L235,50 L230,55" fill="none" stroke="#f8f4ec" stroke-width="2" />
    
    <!-- Wireframe 3 -->
    <rect x="240" y="0" width="80" height="100" rx="3" ry="3" fill="#f8f4ec" />
    <rect x="250" y="10" width="60" height="10" rx="2" ry="2" fill="#8c8984" opacity="0.5" />
    <rect x="250" y="30" width="60" height="20" rx="2" ry="2" fill="#8c8984" opacity="0.5" />
    <rect x="250" y="60" width="60" height="10" rx="2" ry="2" fill="#8c8984" opacity="0.5" />
    <rect x="250" y="80" width="25" height="10" rx="2" ry="2" fill="#2c3e2d" opacity="0.7" />
    
    <!-- User flow annotations -->
    <rect x="0" y="120" width="80" height="30" rx="3" ry="3" fill="#2c3e2d" opacity="0.8" />
    <text x="40" y="140" font-family="Arial" font-size="10" text-anchor="middle" fill="#f8f4ec">Login Screen</text>
    
    <rect x="120" y="120" width="80" height="30" rx="3" ry="3" fill="#2c3e2d" opacity="0.8" />
    <text x="160" y="140" font-family="Arial" font-size="10" text-anchor="middle" fill="#f8f4ec">Dashboard</text>
    
    <rect x="240" y="120" width="80" height="30" rx="3" ry="3" fill="#2c3e2d" opacity="0.8" />
    <text x="280" y="140" font-family="Arial" font-size="10" text-anchor="middle" fill="#f8f4ec">Settings</text>
    
    <!-- Connection lines -->
    <line x1="40" y1="105" x2="40" y2="115" stroke="#f8f4ec" stroke-width="1" />
    <line x1="160" y1="105" x2="160" y2="115" stroke="#f8f4ec" stroke-width="1" />
    <line x1="280" y1="105" x2="280" y2="115" stroke="#f8f4ec" stroke-width="1" />
  </g>
  
  <!-- Decorative elements -->
  <g opacity="0.2">
    <path d="M0,200 Q50,180 100,190 T200,180 T300,190 T350,180 V250 H0 Z" fill="#2c3e2d" />
    <circle cx="20" cy="20" r="10" fill="#f8f4ec" />
    <circle cx="330" cy="20" r="10" fill="#f8f4ec" />
  </g>
</svg>