<svg xmlns="http://www.w3.org/2000/svg" width="350" height="250" viewBox="0 0 350 250">
  <!-- Background -->
  <rect width="350" height="250" fill="#7a9a7a" />
  
  <!-- UX Research elements -->
  <g transform="translate(50, 40)">
    <!-- User flow diagram -->
    <circle cx="40" cy="40" r="25" fill="#f8f4ec" />
    <circle cx="150" cy="40" r="25" fill="#f8f4ec" />
    <circle cx="260" cy="40" r="25" fill="#f8f4ec" />
    <circle cx="95" cy="120" r="25" fill="#f8f4ec" />
    <circle cx="205" cy="120" r="25" fill="#f8f4ec" />
    <circle cx="150" cy="180" r="25" fill="#f8f4ec" />
    
    <!-- Connection lines -->
    <line x1="65" y1="40" x2="125" y2="40" stroke="#2c3e2d" stroke-width="3" />
    <line x1="175" y1="40" x2="235" y2="40" stroke="#2c3e2d" stroke-width="3" />
    <line x1="40" y1="65" x2="95" y2="95" stroke="#2c3e2d" stroke-width="3" />
    <line x1="150" y1="65" x2="95" y2="95" stroke="#2c3e2d" stroke-width="3" />
    <line x1="150" y1="65" x2="205" y2="95" stroke="#2c3e2d" stroke-width="3" />
    <line x1="260" y1="65" x2="205" y2="95" stroke="#2c3e2d" stroke-width="3" />
    <line x1="95" y1="145" x2="150" y2="155" stroke="#2c3e2d" stroke-width="3" />
    <line x1="205" y1="145" x2="150" y2="155" stroke="#2c3e2d" stroke-width="3" />
    
    <!-- Icons inside circles -->
    <text x="40" y="45" font-family="Arial" font-size="12" text-anchor="middle" fill="#2c3e2d">Start</text>
    <text x="150" y="45" font-family="Arial" font-size="12" text-anchor="middle" fill="#2c3e2d">Search</text>
    <text x="260" y="45" font-family="Arial" font-size="12" text-anchor="middle" fill="#2c3e2d">Browse</text>
    <text x="95" y="125" font-family="Arial" font-size="12" text-anchor="middle" fill="#2c3e2d">Select</text>
    <text x="205" y="125" font-family="Arial" font-size="12" text-anchor="middle" fill="#2c3e2d">Review</text>
    <text x="150" y="185" font-family="Arial" font-size="12" text-anchor="middle" fill="#2c3e2d">End</text>
  </g>
  
  <!-- Decorative elements -->
  <g opacity="0.2">
    <path d="M0,200 Q50,180 100,190 T200,180 T300,190 T350,180 V250 H0 Z" fill="#2c3e2d" />
    <rect x="20" y="20" width="40" height="40" rx="5" ry="5" fill="#f8f4ec" />
    <rect x="290" y="20" width="40" height="40" rx="5" ry="5" fill="#f8f4ec" />
  </g>
</svg>