<svg xmlns="http://www.w3.org/2000/svg" width="80" height="80" viewBox="0 0 80 80">
  <defs>
    <linearGradient id="leaf-gradient" x1="0%" y1="0%" x2="100%" y2="100%">
      <stop offset="0%" stop-color="#5e4b3b" />
      <stop offset="100%" stop-color="#a18267" />
    </linearGradient>
  </defs>
  
  <path d="M40,5 C65,5 75,35 75,60 C75,70 65,70 55,65 C45,60 35,50 30,40 C25,30 15,20 40,5 Z" 
        fill="url(#leaf-gradient)" opacity="0.7" />
  
  <!-- Leaf veins -->
  <path d="M40,5 C50,20 55,35 55,50" fill="none" stroke="#5e4b3b" stroke-width="0.8" opacity="0.5" />
  <path d="M40,5 C45,18 47,32 42,48" fill="none" stroke="#5e4b3b" stroke-width="0.6" opacity="0.5" />
  <path d="M40,5 C35,18 33,32 38,48" fill="none" stroke="#5e4b3b" stroke-width="0.6" opacity="0.5" />
  <path d="M40,5 C30,20 25,35 30,50" fill="none" stroke="#5e4b3b" stroke-width="0.8" opacity="0.5" />
  
  <!-- Subtle texture -->
  <path d="M40,5 C65,5 75,35 75,60 C75,70 65,70 55,65 C45,60 35,50 30,40 C25,30 15,20 40,5 Z" 
        fill="#ffffff" opacity="0.05" />
</svg>