<svg xmlns="http://www.w3.org/2000/svg" width="350" height="250" viewBox="0 0 350 250">
  <!-- Background -->
  <rect width="350" height="250" fill="#2c3e2d" />
  
  <!-- Dashboard mockup -->
  <rect x="40" y="30" width="270" height="190" rx="5" ry="5" fill="#f8f4ec" />
  
  <!-- Dashboard sidebar -->
  <rect x="40" y="30" width="60" height="190" rx="5" ry="5" fill="#4a6b4a" />
  
  <!-- Sidebar menu items -->
  <circle cx="70" cy="50" r="10" fill="#7a9a7a" />
  <rect x="55" y="70" width="30" height="6" rx="2" ry="2" fill="#f0e9e0" opacity="0.8" />
  <rect x="55" y="90" width="30" height="6" rx="2" ry="2" fill="#f0e9e0" opacity="0.8" />
  <rect x="55" y="110" width="30" height="6" rx="2" ry="2" fill="#f0e9e0" opacity="0.8" />
  <rect x="55" y="130" width="30" height="6" rx="2" ry="2" fill="#f0e9e0" opacity="0.8" />
  <rect x="55" y="150" width="30" height="6" rx="2" ry="2" fill="#f0e9e0" opacity="0.8" />
  
  <!-- Dashboard content -->
  <rect x="110" y="40" width="190" height="40" rx="3" ry="3" fill="#f0e9e0" />
  
  <!-- Charts and graphs -->
  <rect x="110" y="90" width="90" height="60" rx="3" ry="3" fill="#7a9a7a" opacity="0.5" />
  <path d="M120,130 L130,110 L140,120 L150,100 L160,115 L170,105 L180,125" 
        stroke="#2c3e2d" stroke-width="2" fill="none" />
  
  <rect x="210" y="90" width="90" height="60" rx="3" ry="3" fill="#7a9a7a" opacity="0.5" />
  <circle cx="255" cy="120" r="20" fill="none" stroke="#2c3e2d" stroke-width="2" />
  <path d="M255,120 L255,100 A20,20 0 0,1 271,130 Z" fill="#2c3e2d" />
  
  <!-- Data tables -->
  <rect x="110" y="160" width="190" height="50" rx="3" ry="3" fill="#f0e9e0" />
  <line x1="110" y1="175" x2="300" y2="175" stroke="#7a9a7a" stroke-width="1" />
  <line x1="110" y1="190" x2="300" y2="190" stroke="#7a9a7a" stroke-width="1" />
  <line x1="110" y1="205" x2="300" y2="205" stroke="#7a9a7a" stroke-width="1" />
  <line x1="160" y1="160" x2="160" y2="210" stroke="#7a9a7a" stroke-width="1" />
  <line x1="210" y1="160" x2="210" y2="210" stroke="#7a9a7a" stroke-width="1" />
  <line x1="260" y1="160" x2="260" y2="210" stroke="#7a9a7a" stroke-width="1" />
  
  <!-- Decorative elements -->
  <g opacity="0.2">
    <path d="M0,200 Q50,180 100,190 T200,180 T300,190 T350,180 V250 H0 Z" fill="#7a9a7a" />
    <circle cx="20" cy="20" r="10" fill="#f8f4ec" />
    <circle cx="330" cy="20" r="10" fill="#f8f4ec" />
  </g>
</svg>