<svg xmlns="http://www.w3.org/2000/svg" width="400" height="400" viewBox="0 0 400 400">
  <!-- Background -->
  <rect width="400" height="400" fill="#f0e9e0" rx="200" ry="200" />
  
  <!-- Forest background elements -->
  <g opacity="0.2">
    <path d="M0,300 Q100,250 200,280 T400,250 V400 H0 Z" fill="#4a6b4a" />
    <path d="M0,350 Q80,320 160,340 T320,320 T400,340 V400 H0 Z" fill="#2c3e2d" />
  </g>
  
  <!-- Stylized person silhouette -->
  <g transform="translate(100, 80)">
    <!-- Head -->
    <circle cx="100" cy="70" r="60" fill="#5e4b3b" />
    
    <!-- Body -->
    <path d="M60,130 C60,180 60,220 60,260 C80,270 120,270 140,260 C140,220 140,180 140,130 Z" fill="#4a6b4a" />
    
    <!-- Face elements (minimalist) -->
    <g fill="#f8f4ec">
      <!-- Eyes -->
      <ellipse cx="80" cy="65" rx="8" ry="6" />
      <ellipse cx="120" cy="65" rx="8" ry="6" />
      
      <!-- Smile -->
      <path d="M80,90 Q100,110 120,90" fill="none" stroke="#f8f4ec" stroke-width="3" stroke-linecap="round" />
    </g>
  </g>
  
  <!-- Decorative leaf elements -->
  <g opacity="0.7">
    <path d="M50,50 C70,30 90,40 80,60 C70,80 30,70 50,50 Z" fill="#7a9a7a" />
    <path d="M330,70 C350,50 370,60 360,80 C350,100 310,90 330,70 Z" fill="#7a9a7a" />
    <path d="M300,330 C320,310 340,320 330,340 C320,360 280,350 300,330 Z" fill="#7a9a7a" />
  </g>
</svg>